<?xml version="1.0" encoding="UTF-8"?>
<svg xmlns="http://www.w3.org/2000/svg" xmlns:xlink="http://www.w3.org/1999/xlink" width="310.48999pt" height="161.480011pt" viewBox="0 0 310.48999 161.480011" version="1.1">
<g id="surface1">
<path style=" stroke:none;fill-rule:evenodd;fill:rgb(48%,48%,48%);fill-opacity:1;" d="M 284.023438 81.472656 C 283.753906 80.898438 283.632812 80.609375 283.488281 80.335938 C 279.597656 72.9375 275.714844 65.539062 271.789062 58.160156 C 271.394531 57.417969 271.445312 56.976562 271.984375 56.34375 C 278.171875 49.117188 284.328125 41.859375 290.488281 34.609375 C 290.707031 34.355469 290.902344 34.085938 290.984375 33.632812 C 289.183594 34.101562 287.378906 34.566406 285.578125 35.046875 C 278.105469 37.027344 270.625 39 263.15625 41.007812 C 262.460938 41.195312 262.144531 40.992188 261.796875 40.414062 C 257.554688 33.324219 253.285156 26.246094 249.019531 19.167969 C 248.800781 18.800781 248.5625 18.445312 248.09375 18.136719 C 247.75 20.023438 247.402344 21.910156 247.066406 23.800781 C 245.878906 30.472656 244.691406 37.148438 243.507812 43.820312 C 243.378906 44.539062 243.203125 45.257812 243.140625 45.984375 C 243.082031 46.671875 242.726562 46.925781 242.105469 47.121094 C 233.292969 49.890625 224.492188 52.683594 215.691406 55.472656 C 215.304688 55.59375 214.925781 55.753906 214.511719 56.128906 C 221.710938 58.992188 228.914062 61.851562 236.226562 64.757812 C 235.960938 64.96875 235.785156 65.132812 235.589844 65.257812 C 231.089844 68.171875 226.578125 71.074219 222.089844 74 C 221.550781 74.351562 221.125 74.402344 220.519531 74.128906 C 215.144531 71.707031 209.746094 69.332031 204.359375 66.925781 C 201.941406 65.847656 199.769531 64.414062 198.074219 62.339844 C 194.246094 57.65625 195 52.328125 200.101562 49.074219 C 201.773438 48.007812 203.667969 47.210938 205.558594 46.59375 C 214.1875 43.78125 222.851562 41.070312 231.507812 38.351562 C 232.234375 38.121094 232.570312 37.796875 232.703125 37.011719 C 233.859375 30.332031 235.054688 23.660156 236.257812 16.992188 C 236.902344 13.425781 237.242188 9.769531 238.980469 6.5 C 239.644531 5.242188 240.445312 4.011719 241.394531 2.960938 C 244.832031 -0.855469 249.628906 -1.003906 253.261719 2.632812 C 254.488281 3.859375 255.542969 5.304688 256.453125 6.789062 C 260.457031 13.316406 264.394531 19.886719 268.3125 26.464844 C 268.777344 27.242188 269.195312 27.398438 270.050781 27.171875 C 279.703125 24.582031 289.367188 22.035156 299.03125 19.480469 C 301.027344 18.953125 303.042969 18.761719 305.089844 19.144531 C 309.542969 19.976562 311.488281 23.367188 309.980469 27.671875 C 309.296875 29.632812 308.113281 31.285156 306.78125 32.851562 C 300.039062 40.78125 293.308594 48.71875 286.539062 56.628906 C 285.988281 57.277344 285.976562 57.742188 286.359375 58.464844 C 290.394531 66.074219 294.394531 73.699219 298.410156 81.320312 C 299.371094 83.144531 300.105469 85.035156 300.128906 87.128906 C 300.175781 91.890625 296.691406 95.789062 291.960938 96.484375 C 289.308594 96.871094 286.847656 96.304688 284.363281 95.539062 C 278.308594 93.667969 272.246094 91.828125 266.179688 90.003906 C 265.617188 89.835938 265.402344 89.613281 265.300781 89.007812 C 264.605469 84.738281 263.84375 80.480469 263.105469 76.214844 C 263.085938 76.097656 263.121094 75.972656 263.140625 75.710938 C 270.046875 77.617188 276.894531 79.503906 284.023438 81.472656 "/>
<path style=" stroke:none;fill-rule:evenodd;fill:rgb(23%,23%,23%);fill-opacity:1;" d="M 272.21875 143.65625 C 266.761719 143.648438 261.300781 143.621094 255.84375 143.644531 C 255.121094 143.644531 254.714844 143.4375 254.3125 142.824219 C 247.847656 132.980469 241.355469 123.152344 234.867188 113.324219 C 234.660156 113.011719 234.441406 112.710938 234.074219 112.183594 C 232.679688 122.800781 231.3125 133.179688 229.945312 143.582031 L 215.648438 143.582031 C 215.816406 142.191406 215.964844 140.84375 216.140625 139.503906 C 217.535156 128.84375 218.9375 118.1875 220.335938 107.527344 C 221.675781 97.34375 223.007812 87.160156 224.367188 76.976562 C 224.40625 76.675781 224.609375 76.289062 224.855469 76.128906 C 229.777344 72.921875 234.710938 69.742188 239.648438 66.558594 C 239.71875 66.511719 239.820312 66.507812 240.074219 66.433594 C 238.582031 77.824219 237.101562 89.121094 235.617188 100.417969 C 235.675781 100.457031 235.734375 100.5 235.792969 100.539062 C 243.539062 91.957031 251.28125 83.371094 259.195312 74.601562 C 259.421875 75.921875 259.621094 77.050781 259.816406 78.183594 C 260.371094 81.417969 260.902344 84.660156 261.496094 87.890625 C 261.617188 88.542969 261.441406 88.945312 261.007812 89.398438 C 256 94.640625 251.011719 99.898438 246.019531 105.152344 C 245.800781 105.382812 245.59375 105.621094 245.34375 105.894531 C 245.503906 106.148438 245.640625 106.394531 245.800781 106.621094 C 254.414062 118.707031 263.027344 130.796875 271.644531 142.878906 C 271.800781 143.097656 272.027344 143.269531 272.21875 143.464844 L 272.21875 143.65625 "/>
<path style=" stroke:none;fill-rule:evenodd;fill:rgb(23%,23%,23%);fill-opacity:1;" d="M 102.765625 112.230469 C 102.546875 111.117188 102.390625 109.480469 101.894531 107.953125 C 99.5 100.566406 91.921875 96.515625 84.078125 98.339844 C 75.46875 100.34375 69.320312 107.109375 68.429688 115.890625 C 67.769531 122.386719 71.269531 128.644531 77.773438 130.996094 C 83.011719 132.886719 88.058594 132.097656 92.742188 129.285156 C 98.949219 125.5625 102.316406 120.03125 102.765625 112.230469 Z M 64.96875 139.6875 C 64.546875 142.867188 64.140625 145.859375 63.746094 148.859375 C 63.222656 152.84375 62.699219 156.828125 62.199219 160.8125 C 62.140625 161.277344 62 161.484375 61.5 161.480469 C 57.574219 161.464844 53.644531 161.46875 49.71875 161.460938 C 49.628906 161.460938 49.539062 161.414062 49.328125 161.351562 C 49.566406 159.472656 49.796875 157.585938 50.042969 155.699219 C 50.910156 149.09375 51.773438 142.484375 52.652344 135.875 C 53.660156 128.320312 54.457031 120.730469 55.742188 113.226562 C 58.023438 99.933594 69.296875 88.480469 82.53125 85.628906 C 90.203125 83.972656 97.542969 84.738281 104.238281 89.054688 C 110.917969 93.359375 114.75 99.605469 115.621094 107.464844 C 116.859375 118.574219 112.769531 127.796875 104.878906 135.425781 C 99.699219 140.4375 93.496094 143.617188 86.34375 144.695312 C 78.976562 145.804688 72.050781 144.578125 65.832031 140.234375 C 65.605469 140.074219 65.359375 139.933594 64.96875 139.6875 "/>
<path style=" stroke:none;fill-rule:evenodd;fill:rgb(23%,23%,23%);fill-opacity:1;" d="M 58.570312 76.527344 C 54.167969 79.808594 49.921875 82.96875 45.65625 86.140625 C 44.96875 85.058594 44.355469 83.976562 43.636719 82.972656 C 41.785156 80.386719 39.488281 78.457031 36.148438 78.222656 C 33.367188 78.027344 30.988281 78.941406 29.097656 80.992188 C 27.40625 82.824219 27.183594 85.429688 28.765625 87.5 C 30.507812 89.777344 32.410156 91.9375 34.355469 94.046875 C 37.582031 97.542969 40.953125 100.90625 44.15625 104.417969 C 47.070312 107.617188 49.394531 111.203125 50.113281 115.578125 C 50.96875 120.773438 49.929688 125.722656 47.472656 130.292969 C 42.921875 138.746094 35.757812 143.648438 26.300781 145.183594 C 22.121094 145.859375 17.957031 145.726562 13.882812 144.527344 C 8.472656 142.933594 4.707031 139.390625 2.285156 134.382812 C 1.429688 132.613281 0.777344 130.746094 0 128.847656 C 4.734375 126.316406 9.335938 123.851562 14.003906 121.355469 C 14.164062 121.742188 14.28125 122.066406 14.429688 122.371094 C 15.226562 123.964844 15.878906 125.65625 16.863281 127.121094 C 19.789062 131.46875 24.511719 132.792969 29.300781 130.644531 C 30.53125 130.089844 31.71875 129.3125 32.726562 128.417969 C 35.8125 125.675781 36.390625 121.863281 34.105469 118.414062 C 32.792969 116.433594 31.152344 114.65625 29.554688 112.882812 C 25.734375 108.640625 21.757812 104.53125 18.027344 100.210938 C 15.453125 97.234375 13.703125 93.765625 13.152344 89.777344 C 12.546875 85.421875 13.417969 81.316406 15.683594 77.648438 C 21.316406 68.539062 29.5 63.800781 40.328125 64.191406 C 46.5 64.414062 51.414062 67.300781 55.226562 72.097656 C 56.355469 73.515625 57.414062 74.992188 58.570312 76.527344 "/>
<path style=" stroke:none;fill-rule:evenodd;fill:rgb(23%,23%,23%);fill-opacity:1;" d="M 163.144531 125.441406 C 162.425781 130.929688 161.75 136.144531 161.046875 141.355469 C 161.007812 141.621094 160.800781 141.980469 160.578125 142.082031 C 149.921875 147.019531 135.890625 146.328125 127.136719 136.390625 C 122.4375 131.054688 120.464844 124.714844 120.757812 117.664062 C 121.441406 101.347656 134.972656 87.097656 151.152344 85.109375 C 160.605469 83.945312 168.898438 86.5 175.300781 93.84375 C 179.664062 98.84375 181.683594 104.820312 181.382812 111.414062 C 181.1875 115.769531 180.503906 120.105469 179.964844 124.4375 C 179.195312 130.578125 178.355469 136.710938 177.546875 142.847656 C 177.515625 143.0625 177.472656 143.28125 177.421875 143.558594 L 164.675781 143.558594 C 164.84375 142.148438 165 140.765625 165.179688 139.390625 C 166.101562 132.304688 167.117188 125.230469 167.925781 118.128906 C 168.429688 113.707031 168.113281 109.320312 166.089844 105.226562 C 163.941406 100.875 160.335938 98.570312 155.589844 98.070312 C 145.773438 97.03125 136.4375 103.851562 134.34375 113.511719 C 132.960938 119.886719 135.140625 126 140.21875 129.378906 C 145.167969 132.671875 150.46875 132.683594 155.863281 130.546875 C 158.597656 129.464844 160.925781 127.75 163.144531 125.441406 "/>
<path style=" stroke:none;fill-rule:evenodd;fill:rgb(23%,23%,23%);fill-opacity:1;" d="M 216.824219 86.347656 C 216.242188 90.765625 215.667969 95.121094 215.082031 99.566406 C 212.386719 99.566406 209.742188 99.550781 207.101562 99.570312 C 204.960938 99.585938 203.007812 100.96875 202.363281 102.96875 C 202.113281 103.75 202.019531 104.585938 201.910156 105.40625 C 200.570312 115.558594 199.238281 125.707031 197.90625 135.855469 C 197.570312 138.414062 197.246094 140.976562 196.910156 143.574219 L 183.640625 143.574219 C 183.886719 141.621094 184.121094 139.734375 184.367188 137.847656 C 185.230469 131.269531 186.09375 124.695312 186.96875 118.117188 C 187.722656 112.429688 188.398438 106.726562 189.285156 101.058594 C 190.476562 93.457031 198.039062 86.707031 205.707031 86.375 C 209.367188 86.214844 213.039062 86.347656 216.824219 86.347656 "/>
<path style=" stroke:none;fill-rule:nonzero;fill:rgb(23%,23%,23%);fill-opacity:1;" d="M 287.863281 143.574219 L 287.863281 137.972656 L 287.832031 137.972656 L 285.632812 143.574219 L 284.933594 143.574219 L 282.734375 137.972656 L 282.699219 137.972656 L 282.699219 143.574219 L 281.59375 143.574219 L 281.59375 136.863281 L 283.304688 136.863281 L 285.304688 141.960938 L 287.277344 136.863281 L 288.972656 136.863281 L 288.972656 143.574219 Z M 278.125 137.761719 L 278.125 143.574219 L 277.019531 143.574219 L 277.019531 137.761719 L 274.917969 137.761719 L 274.917969 136.863281 L 280.226562 136.863281 L 280.226562 137.761719 L 278.125 137.761719 "/>
<path style=" stroke:none;fill-rule:nonzero;fill:rgb(23%,23%,23%);fill-opacity:1;" d="M 76.34375 67.109375 L 79.636719 67.109375 L 78.859375 62.128906 Z M 80.152344 70.324219 L 74.679688 70.324219 L 72.941406 73.730469 L 69.0625 73.730469 L 77.613281 57.757812 L 81.351562 57.757812 L 84.261719 73.730469 L 80.667969 73.730469 L 80.152344 70.324219 "/>
<path style=" stroke:none;fill-rule:nonzero;fill:rgb(23%,23%,23%);fill-opacity:1;" d="M 99.734375 60.976562 L 97.785156 60.976562 L 97.128906 64.664062 L 99.078125 64.664062 C 100.253906 64.664062 101.191406 63.890625 101.191406 62.433594 C 101.191406 61.46875 100.605469 60.976562 99.734375 60.976562 Z M 95.015625 57.757812 L 100.136719 57.757812 C 102.8125 57.757812 104.691406 59.355469 104.691406 62.101562 C 104.691406 65.558594 102.25 67.882812 98.773438 67.882812 L 96.566406 67.882812 L 95.53125 73.730469 L 92.195312 73.730469 L 95.015625 57.757812 "/>
<path style=" stroke:none;fill-rule:nonzero;fill:rgb(23%,23%,23%);fill-opacity:1;" d="M 116.023438 67.109375 L 119.3125 67.109375 L 118.535156 62.128906 Z M 119.828125 70.324219 L 114.355469 70.324219 L 112.617188 73.730469 L 108.738281 73.730469 L 117.289062 57.757812 L 121.027344 57.757812 L 123.9375 73.730469 L 120.34375 73.730469 L 119.828125 70.324219 "/>
<path style=" stroke:none;fill-rule:nonzero;fill:rgb(23%,23%,23%);fill-opacity:1;" d="M 141.46875 73.167969 C 140.339844 73.683594 139.097656 73.992188 137.851562 73.992188 C 133.621094 73.992188 130.96875 70.820312 130.96875 66.847656 C 130.96875 61.773438 135.242188 57.5 140.316406 57.5 C 141.585938 57.5 142.738281 57.804688 143.675781 58.320312 L 143.207031 62.152344 C 142.503906 61.375 141.371094 60.835938 139.964844 60.835938 C 137.050781 60.835938 134.46875 63.46875 134.46875 66.519531 C 134.46875 68.84375 135.925781 70.65625 138.226562 70.65625 C 139.636719 70.65625 140.996094 70.113281 141.914062 69.363281 L 141.46875 73.167969 "/>
<path style=" stroke:none;fill-rule:nonzero;fill:rgb(23%,23%,23%);fill-opacity:1;" d="M 161.851562 67.296875 L 154.898438 67.296875 L 153.769531 73.730469 L 150.4375 73.730469 L 153.253906 57.757812 L 156.589844 57.757812 L 155.464844 64.078125 L 162.414062 64.078125 L 163.542969 57.757812 L 166.878906 57.757812 L 164.0625 73.730469 L 160.726562 73.730469 L 161.851562 67.296875 "/>
<path style=" stroke:none;fill-rule:nonzero;fill:rgb(23%,23%,23%);fill-opacity:1;" d="M 174.085938 73.730469 L 176.902344 57.757812 L 185.757812 57.757812 L 185.195312 60.976562 L 179.675781 60.976562 L 179.113281 64.078125 L 184.183594 64.078125 L 183.621094 67.296875 L 178.546875 67.296875 L 177.984375 70.511719 L 183.503906 70.511719 L 182.941406 73.730469 L 174.085938 73.730469 "/>
</g>
</svg>
