<?xml version="1.0" encoding="UTF-8"?>
<svg xmlns="http://www.w3.org/2000/svg" xmlns:xlink="http://www.w3.org/1999/xlink" width="204.800003pt" height="153.600006pt" viewBox="0 0 204.800003 153.600006" version="1.1">
<g id="surface1">
<path style=" stroke:none;fill-rule:nonzero;fill:rgb(11%,11%,11%);fill-opacity:1;" d="M 75.933594 33.75 L 62.371094 35.953125 L 49.996094 41.378906 L 39.484375 47.988281 L 29.480469 60.195312 L 23.832031 66.183594 L 18.363281 68.195312 L 16.921875 64.664062 L 19.445312 61.015625 L 20.015625 55.871094 L 21.707031 55.941406 L 23.558594 57.628906 L 23.058594 52.386719 L 21.007812 51.011719 L 21.070312 49.015625 L 16.214844 51.761719 L 11.816406 56.953125 L 10.898438 61.589844 L 12.78125 65.300781 L 14.535156 71.609375 L 18.101562 73.300781 L 21.855469 73.113281 L 25.410156 71.046875 L 23.039062 83.085938 L 25.410156 96.480469 L 22.800781 102.664062 L 14.242188 111.882812 L 15.761719 117.394531 L 19.816406 123.777344 L 27.460938 129.15625 L 31.515625 129.710938 L 36.023438 129.863281 L 33.210938 141.410156 L 43.554688 145.644531 L 56.4375 147.34375 L 60.84375 144.460938 L 61.183594 136.660156 L 66.101562 128.523438 L 66.441406 122.078125 L 78.308594 122.929688 L 89.328125 121.910156 L 78.308594 128.523438 L 80.175781 136.492188 L 87.125 147.34375 L 93.90625 150.222656 L 99.332031 148.019531 L 101.535156 143.613281 L 112.894531 134.964844 L 115.101562 136.832031 L 132.902344 137.507812 L 136.460938 134.625 L 136.800781 129.539062 L 135.613281 127.335938 L 134.765625 113.601562 L 128.832031 101.734375 L 129.851562 96.480469 L 133.410156 98.34375 L 143.414062 107.667969 L 148.332031 108.007812 L 153.753906 105.804688 L 159.179688 101.734375 L 161.894531 92.917969 L 177.832031 93.9375 L 187.496094 90.207031 L 195.292969 82.917969 L 200.890625 72.40625 L 202.246094 60.027344 L 201.058594 45.617188 L 198.007812 32.730469 L 194.953125 28.664062 L 190.714844 27.304688 L 183.257812 35.445312 L 176.476562 37.816406 L 170.539062 27.984375 L 164.605469 22.558594 L 161.386719 20.523438 L 148.5 9.84375 L 138.15625 4.25 L 127.816406 3.402344 L 115.777344 5.4375 L 105.265625 9.332031 L 97.976562 15.269531 L 92.210938 22.21875 L 86.277344 23.914062 L 75.933594 33.75 "/>
<path style=" stroke:none;fill-rule:nonzero;fill:rgb(2%,2%,2%);fill-opacity:1;" d="M 36.597656 64.347656 C 24.980469 77.898438 27.5625 94.332031 30.78125 110.4375 C 29.0625 106.09375 27.34375 101.75 25.625 97.410156 C 24.992188 93.429688 24.359375 89.449219 23.726562 85.46875 C 23.90625 81.398438 24.085938 77.328125 24.269531 73.261719 C 25.894531 69.371094 27.523438 65.480469 29.152344 61.59375 C 31.59375 57.972656 34.035156 54.355469 36.480469 50.738281 C 40.277344 47.574219 44.078125 44.40625 47.875 41.242188 C 52.035156 39.523438 56.199219 37.804688 60.359375 36.085938 C 65.242188 35.453125 70.125 34.820312 75.011719 34.1875 C 70.488281 39.339844 65.964844 44.496094 61.441406 49.652344 C 50.550781 53.1875 44.125 55.566406 36.597656 64.347656 "/>
<path style=" stroke:none;fill-rule:nonzero;fill:rgb(2%,2%,2%);fill-opacity:1;" d="M 91.292969 23.058594 C 83.214844 30.941406 78.800781 36.882812 73.664062 46.109375 C 69.988281 52.710938 65.863281 59.066406 61.996094 65.574219 C 60.042969 68.871094 59.855469 71.632812 59.273438 75.429688 C 57.371094 73.171875 55.472656 70.910156 53.574219 68.648438 C 54.480469 65.933594 55.382812 63.21875 56.289062 60.507812 C 59.363281 54.988281 62.4375 49.472656 65.515625 43.953125 C 72.027344 37.53125 78.539062 31.109375 85.050781 24.6875 C 87.128906 24.144531 89.210938 23.605469 91.292969 23.058594 "/>
<path style=" stroke:none;fill-rule:nonzero;fill:rgb(2%,2%,2%);fill-opacity:1;" d="M 131.179688 3.523438 C 124.710938 5.949219 113.96875 6.746094 113.222656 14.171875 C 112.691406 19.445312 113.621094 22.09375 116.796875 27.675781 C 108.949219 19.550781 107.007812 20.808594 91.835938 23.332031 C 94.003906 20.257812 96.175781 17.183594 98.347656 14.105469 C 102.144531 11.753906 105.945312 9.402344 109.742188 7.050781 C 114.628906 5.964844 119.511719 4.878906 124.394531 3.792969 C 126.65625 3.703125 128.917969 3.613281 131.179688 3.523438 "/>
<path style=" stroke:none;fill-rule:nonzero;fill:rgb(29%,29%,29%);fill-opacity:1;" d="M 149.03125 103.957031 C 151.183594 105.285156 151.136719 106.25 150.777344 107.160156 C 152.476562 106.480469 154.175781 105.800781 155.875 105.121094 C 156.976562 103.644531 158.074219 102.167969 159.175781 100.6875 C 159.992188 98.582031 160.808594 96.476562 161.625 94.371094 C 160.582031 93.585938 159.539062 92.800781 158.496094 92.015625 C 153.933594 92.597656 149.371094 93.179688 144.808594 93.765625 C 144.46875 94.683594 144.128906 95.609375 143.789062 96.53125 C 143.886719 97.839844 143.984375 99.152344 144.078125 100.460938 C 144.515625 101.238281 144.953125 102.015625 145.390625 102.792969 C 146.070312 103.132812 146.75 103.472656 147.429688 103.8125 C 147.964844 103.859375 148.496094 103.910156 149.03125 103.957031 "/>
<path style=" stroke:none;fill-rule:nonzero;fill:rgb(29%,29%,29%);fill-opacity:1;" d="M 147.757812 80.546875 C 140.894531 82.527344 140.949219 83.074219 138.921875 89.882812 C 141.597656 85.589844 143.578125 83.425781 147.757812 80.546875 "/>
<path style=" stroke:none;fill-rule:nonzero;fill:rgb(29%,29%,29%);fill-opacity:1;" d="M 193.375 29.613281 C 192.15625 30.175781 190.96875 30.445312 190.207031 31.5625 C 188.566406 33.964844 187.160156 35.984375 184.445312 37.667969 C 183.078125 38.519531 181.664062 39.070312 180.214844 39.523438 C 179.011719 39.894531 178.289062 39.5625 177.265625 40.296875 C 177.871094 40.402344 178.480469 40.507812 179.085938 40.613281 L 183.101562 40.613281 C 184.753906 39.597656 186.402344 38.578125 188.054688 37.558594 C 189.027344 36.539062 189.996094 35.519531 190.96875 34.5 C 191.769531 32.871094 192.574219 31.242188 193.375 29.613281 "/>
<path style=" stroke:none;fill-rule:nonzero;fill:rgb(29%,29%,29%);fill-opacity:1;" d="M 84.085938 44.835938 C 81.386719 52.222656 79.027344 58.554688 74.941406 65.242188 C 80.179688 59.597656 83.355469 54.796875 86.355469 48.417969 C 87.523438 45.9375 87.742188 43.027344 90.988281 44.109375 C 91.136719 46.585938 91.660156 49.058594 91.804688 51.535156 C 93.558594 38.960938 98.507812 33.699219 110.007812 28.820312 C 106.753906 29.210938 103.503906 29.597656 100.25 29.984375 C 97.191406 30.664062 94.132812 31.34375 91.078125 32.023438 C 89.570312 34.207031 88.066406 36.394531 86.5625 38.578125 C 85.738281 40.664062 84.914062 42.75 84.085938 44.835938 "/>
<path style=" stroke:none;fill-rule:nonzero;fill:rgb(29%,29%,29%);fill-opacity:1;" d="M 106.367188 44.546875 C 108.847656 56.21875 112.417969 67.421875 113.96875 79.277344 C 114.976562 86.984375 115.085938 90.6875 111.207031 97.332031 C 106.972656 97.058594 104.339844 97.535156 100.242188 98.878906 C 83.929688 104.226562 74.570312 112.089844 63.578125 96.246094 C 67.089844 97.902344 70.597656 99.554688 74.105469 101.207031 C 76.609375 100.71875 79.109375 100.226562 81.613281 99.734375 C 86.027344 97.160156 90.445312 94.589844 94.863281 92.015625 C 98.308594 91.335938 101.753906 90.65625 105.199219 89.976562 C 106.316406 85.320312 107.433594 80.660156 108.550781 76 C 107.726562 69.835938 106.898438 63.671875 106.074219 57.503906 C 105.976562 54.59375 105.878906 51.683594 105.785156 48.769531 C 105.976562 47.363281 106.171875 45.953125 106.367188 44.546875 "/>
<path style=" stroke:none;fill-rule:nonzero;fill:rgb(29%,29%,29%);fill-opacity:1;" d="M 134.46875 116.769531 C 133.097656 126.253906 137.625 131.351562 135.75 133.96875 C 135.21875 134.710938 134.5 136.003906 133.699219 136.359375 C 130.832031 137.628906 126.886719 136.125 126.605469 136.863281 L 117.140625 136.863281 C 115.878906 136.332031 114.617188 135.796875 113.355469 135.261719 C 115.296875 132.980469 117.238281 130.699219 119.179688 128.417969 C 121.074219 124.292969 122.964844 120.167969 124.859375 116.042969 C 126.074219 111.867188 127.285156 107.695312 128.5 103.519531 L 130.390625 103.519531 C 131.75 107.9375 133.109375 112.351562 134.46875 116.769531 "/>
<path style=" stroke:none;fill-rule:nonzero;fill:rgb(29%,29%,29%);fill-opacity:1;" d="M 118.5625 89.203125 C 119.328125 93.507812 120.664062 94.53125 122.691406 98.699219 C 121.34375 105.5 119.175781 113.585938 116.570312 119.585938 C 115.472656 122.113281 114.585938 123.507812 112.644531 125.464844 C 109.375 128.769531 106.066406 131.644531 102.355469 134.511719 C 99.6875 136.566406 97.820312 135.535156 94.527344 135.070312 C 93.125 137.609375 92.738281 139.019531 90.160156 140.3125 C 86.191406 142.292969 82.644531 138.019531 79.527344 135.507812 C 81.777344 139.015625 84.023438 142.527344 86.269531 146.039062 C 87.824219 147.496094 89.378906 148.949219 90.929688 150.40625 C 92.242188 150.601562 93.550781 150.796875 94.863281 150.988281 C 96.609375 149.921875 98.355469 148.851562 100.105469 147.785156 C 101.027344 146.039062 101.949219 144.289062 102.871094 142.542969 C 104.8125 141.085938 106.753906 139.632812 108.695312 138.175781 C 111.074219 136.136719 113.453125 134.097656 115.832031 132.058594 C 117.335938 129.921875 118.839844 127.789062 120.34375 125.652344 L 124.421875 118.082031 C 126.167969 112.839844 127.917969 107.597656 129.664062 102.355469 C 129.808594 100.363281 129.953125 98.375 130.101562 96.382812 C 127.917969 95.414062 125.734375 94.441406 123.546875 93.472656 C 121.945312 91.96875 120.164062 90.707031 118.5625 89.203125 "/>
<path style=" stroke:none;fill-rule:nonzero;fill:rgb(29%,29%,29%);fill-opacity:1;" d="M 66.324219 119.535156 C 73.671875 119.535156 81.433594 119.128906 88.164062 116.042969 C 90.070312 113.183594 91.949219 110.851562 94.28125 108.324219 C 92.160156 112.332031 91.492188 114.597656 90.929688 119.101562 C 90.203125 120.167969 89.476562 121.234375 88.746094 122.304688 C 83.214844 122.449219 77.679688 122.59375 72.148438 122.742188 C 70.351562 122.546875 68.554688 122.351562 66.757812 122.15625 C 66.566406 121.960938 66.371094 121.769531 66.175781 121.574219 C 66.226562 120.894531 66.273438 120.214844 66.324219 119.535156 "/>
<path style=" stroke:none;fill-rule:nonzero;fill:rgb(29%,29%,29%);fill-opacity:1;" d="M 65.304688 114.441406 C 65.113281 112.71875 64.921875 110.996094 64.734375 109.269531 C 63.476562 116.828125 63.777344 121.894531 60.300781 128.664062 C 57.703125 131.671875 54.503906 134.414062 50.839844 135.878906 C 51.148438 137.734375 51.242188 138.894531 51.0625 140.257812 C 50.414062 145.152344 40.625 142.988281 36.59375 142.792969 C 43.058594 144.457031 49.519531 146.121094 55.984375 147.785156 C 57.441406 147.203125 58.894531 146.621094 60.351562 146.039062 C 60.839844 143.222656 61.324219 140.40625 61.808594 137.59375 C 63.167969 135.070312 64.527344 132.542969 65.886719 130.023438 C 66.128906 128.46875 66.371094 126.914062 66.613281 125.363281 C 66.175781 121.722656 65.742188 118.082031 65.304688 114.441406 "/>
<path style=" stroke:none;fill-rule:nonzero;fill:rgb(29%,29%,29%);fill-opacity:1;" d="M 54.382812 71.777344 C 54.179688 75.453125 53.941406 76.984375 55.5625 80.230469 C 57.621094 84.355469 60.152344 88.230469 62.390625 92.308594 C 62.632812 89.589844 62.875 86.871094 63.117188 84.152344 C 60.207031 80.027344 57.292969 75.902344 54.382812 71.777344 "/>
<path style=" stroke:none;fill-rule:nonzero;fill:rgb(29%,29%,29%);fill-opacity:1;" d="M 24.492188 99.535156 C 23.859375 100.878906 23.230469 102.21875 22.601562 103.5625 C 24.335938 109.40625 25.878906 113.105469 29.179688 118.210938 C 28.605469 120.28125 28.175781 121.183594 26.851562 122.871094 C 23.945312 122.425781 21.363281 122.292969 18.417969 122.304688 C 21.667969 124.828125 24.921875 127.351562 28.171875 129.875 C 29.773438 129.582031 31.375 129.292969 32.976562 129 C 34.578125 127.398438 36.179688 125.796875 37.78125 124.195312 C 35.5 120.652344 33.21875 117.109375 30.9375 113.566406 C 28.789062 108.890625 26.640625 104.214844 24.492188 99.535156 "/>
<path style=" stroke:none;fill-rule:nonzero;fill:rgb(29%,29%,29%);fill-opacity:1;" d="M 193.398438 27.679688 C 195.378906 36.589844 197.933594 44.8125 197.695312 53.9375 C 197.402344 65.132812 195.222656 79.277344 184.847656 86.027344 C 173.230469 93.589844 159.59375 90.015625 146.84375 86.773438 C 152.039062 88.910156 157.234375 91.046875 162.425781 93.179688 C 167.28125 93.425781 172.132812 93.667969 176.988281 93.910156 C 180.289062 92.9375 183.589844 91.96875 186.890625 90.996094 C 189.460938 88.859375 192.035156 86.726562 194.605469 84.589844 C 196.546875 80.511719 198.488281 76.4375 200.429688 72.359375 C 201.160156 67.648438 201.886719 62.941406 202.613281 58.234375 C 202.035156 53.621094 201.449219 49.011719 200.867188 44.402344 C 199.800781 39.839844 198.730469 35.277344 197.664062 30.714844 C 196.242188 29.703125 194.820312 28.691406 193.398438 27.679688 "/>
<path style=" stroke:none;fill-rule:nonzero;fill:rgb(29%,29%,29%);fill-opacity:1;" d="M 20.023438 54.234375 C 14.75 57.667969 12.675781 59.175781 13.253906 65.539062 C 13.78125 67.445312 14.304688 69.347656 14.832031 71.253906 C 15.578125 71.757812 16.320312 72.261719 17.066406 72.765625 C 17.984375 73.074219 18.90625 73.378906 19.824219 73.6875 C 21.492188 73.292969 23.15625 72.898438 24.820312 72.503906 C 25.675781 69.851562 26.527344 67.203125 27.382812 64.550781 C 25.015625 65.714844 22.652344 66.875 20.285156 68.035156 L 18.644531 68.035156 C 18.03125 67.09375 17.417969 66.152344 16.804688 65.210938 C 17.546875 64.113281 18.292969 63.019531 19.039062 61.925781 C 19.433594 59.84375 19.824219 57.761719 20.21875 55.683594 C 20.722656 55.835938 21.226562 55.988281 21.730469 56.140625 C 22.34375 56.625 22.957031 57.105469 23.570312 57.585938 C 23.484375 56.492188 23.394531 55.398438 23.308594 54.300781 C 22.890625 53.601562 22.476562 52.902344 22.058594 52.199219 C 21.644531 51.847656 21.226562 51.5 20.8125 51.148438 C 20.546875 52.179688 20.285156 53.207031 20.023438 54.234375 "/>
<path style=" stroke:none;fill-rule:nonzero;fill:rgb(29%,29%,29%);fill-opacity:1;" d="M 138.351562 4.105469 C 143.03125 8.449219 148.777344 12.230469 152.519531 17.542969 C 153.96875 19.597656 155.578125 20.648438 152.496094 23.554688 C 155.753906 22.621094 156.964844 22.722656 159.574219 23.039062 C 164.316406 23.613281 168.761719 30.359375 169.046875 35.191406 C 168.992188 35.640625 167.730469 36.667969 164.0625 37.679688 C 163.988281 37.824219 161.992188 37.410156 162.039062 37.542969 C 162.421875 38.585938 162.929688 38.746094 163.707031 39.234375 C 163.878906 40.394531 163.984375 42.183594 164.777344 43.453125 C 167.085938 43.410156 169.339844 43.664062 171.601562 44.109375 C 172.359375 45.371094 172.246094 46.632812 172.183594 47.894531 C 173.054688 47.75 173.929688 47.605469 174.804688 47.460938 C 174.5625 45.46875 174.316406 43.480469 174.074219 41.488281 C 174.851562 40.179688 175.628906 38.867188 176.40625 37.558594 C 175.289062 35.03125 174.171875 32.511719 173.054688 29.984375 C 170.921875 27.945312 168.785156 25.910156 166.648438 23.871094 C 166.445312 23.859375 166.238281 23.847656 166.03125 23.839844 C 163.628906 22.363281 161.230469 20.890625 158.828125 19.417969 C 154.910156 16.210938 150.992188 13.007812 147.074219 9.800781 C 144.167969 7.902344 141.257812 6.003906 138.351562 4.105469 "/>
<path style=" stroke:none;fill-rule:nonzero;fill:rgb(29%,29%,29%);fill-opacity:1;" d="M 146.234375 39.980469 C 145.988281 40.414062 145.617188 41.101562 145.136719 41.582031 C 147.085938 43.425781 148.050781 44.660156 148.746094 47.269531 C 146.542969 48.363281 144.335938 49.457031 142.132812 50.550781 C 140.269531 52.339844 138.402344 54.128906 136.539062 55.914062 C 134.082031 54.59375 133.472656 53.578125 132.285156 51.058594 C 130.902344 51.425781 129.589844 51.777344 128.449219 51.359375 C 129.171875 51.363281 129.617188 51.183594 130.34375 50.734375 C 131.527344 49.503906 132.714844 48.269531 133.902344 47.039062 C 136 45.449219 138.09375 43.863281 140.191406 42.273438 C 141.5625 41.828125 142.933594 41.378906 144.308594 40.933594 C 144.832031 40.71875 145.710938 40.199219 146.234375 39.980469 "/>
<path style=" stroke:none;fill-rule:nonzero;fill:rgb(29%,29%,29%);fill-opacity:1;" d="M 152.320312 46.558594 C 145.308594 50.335938 138.589844 54.132812 135.007812 61.300781 C 135.007812 52.199219 144.144531 48.195312 152.320312 46.558594 "/>
<path style=" stroke:none;fill-rule:nonzero;fill:rgb(29%,29%,29%);fill-opacity:1;" d="M 133.613281 28.65625 C 128.40625 32.203125 124.726562 39.371094 125.1875 46.351562 C 123.492188 40.304688 124.09375 34.59375 129.300781 30.417969 C 130.179688 29.988281 131.058594 29.5625 131.9375 29.136719 C 132.496094 28.976562 133.054688 28.816406 133.613281 28.65625 "/>
<path style=" stroke:none;fill-rule:nonzero;fill:rgb(100%,100%,100%);fill-opacity:1;" d="M 203.683594 45.140625 C 202.738281 39.183594 201.175781 33.40625 199 29.25 C 198.738281 28.742188 198.335938 28.226562 197.839844 27.734375 C 196.757812 26.671875 195.160156 25.664062 193.511719 25.09375 C 191.761719 24.492188 189.917969 24.371094 188.453125 25.136719 C 188.074219 25.335938 187.722656 25.59375 187.40625 25.910156 C 186.457031 26.871094 185.660156 28.039062 184.859375 29.210938 C 183.96875 30.511719 183.070312 31.820312 182 32.734375 C 180.757812 33.796875 179.203125 34.441406 177.734375 35.03125 C 177.09375 33.476562 176.355469 32.054688 175.519531 30.71875 C 174.515625 29.117188 173.375 27.621094 172.117188 26.125 C 171.089844 24.902344 170.09375 23.984375 169.011719 23.164062 C 167.929688 22.335938 166.820312 21.640625 165.53125 20.832031 C 162.066406 18.664062 159.121094 16.078125 156.113281 13.441406 C 154.746094 12.242188 153.367188 11.03125 152.015625 9.917969 C 144.859375 4.015625 138.179688 1.152344 131.035156 0.703125 C 123.941406 0.257812 116.453125 2.207031 107.609375 5.929688 C 103.339844 7.726562 100.171875 9.847656 97.410156 12.402344 C 94.769531 14.84375 92.53125 17.652344 90.070312 20.933594 C 88.636719 21.035156 87.371094 21.246094 86.074219 21.765625 C 84.648438 22.335938 83.210938 23.257812 81.488281 24.777344 C 80.265625 25.855469 79.097656 26.941406 77.96875 28.03125 C 76.910156 29.054688 75.882812 30.097656 74.871094 31.148438 C 66.816406 32.445312 60.257812 33.871094 54.382812 36.148438 C 48.375 38.472656 43.078125 41.675781 37.640625 46.5 C 35.417969 48.46875 33.492188 50.550781 31.808594 52.757812 C 30.15625 54.925781 28.738281 57.203125 27.496094 59.605469 C 26.410156 60.808594 25.320312 62.023438 24.140625 63.089844 C 22.988281 64.125 21.761719 64.996094 20.386719 65.527344 L 20.390625 65.527344 C 19.589844 65.835938 19.257812 66.015625 19.222656 66.003906 C 19.183594 65.980469 19.160156 65.859375 19.105469 65.640625 C 21.078125 63.753906 21.386719 60.988281 21.570312 58.242188 C 21.808594 58.523438 22.035156 58.875 22.269531 59.238281 C 22.53125 59.640625 22.800781 60.054688 23.121094 60.460938 L 24.457031 62.148438 L 24.929688 60.042969 C 25.324219 58.273438 25.621094 55.921875 25.160156 53.882812 C 24.863281 52.558594 24.246094 51.378906 23.175781 50.542969 C 23.28125 50.273438 23.375 50.027344 23.472656 49.785156 C 23.808594 48.925781 24.15625 48.042969 24.449219 47.210938 L 25.027344 45.554688 L 23.300781 45.855469 C 21.003906 46.253906 16.058594 48.972656 12.582031 52.582031 C 11.289062 53.921875 10.179688 55.40625 9.449219 56.960938 C 8.691406 58.578125 8.351562 60.273438 8.644531 61.96875 C 8.902344 63.449219 9.640625 64.902344 10.988281 66.273438 C 11.234375 67.261719 11.460938 68.121094 11.703125 68.894531 C 11.980469 69.777344 12.277344 70.566406 12.652344 71.339844 C 13.664062 73.449219 15.28125 74.734375 17.148438 75.332031 C 18.648438 75.816406 20.3125 75.839844 21.941406 75.484375 C 21.621094 77.324219 21.421875 79.25 21.34375 81.351562 C 21.238281 84.097656 21.339844 87.136719 21.644531 90.660156 C 21.710938 91.433594 21.808594 92.28125 21.9375 93.207031 C 22.050781 93.996094 22.183594 94.769531 22.328125 95.539062 C 22.023438 96.371094 21.714844 97.203125 21.410156 98.03125 C 20.9375 99.320312 20.460938 100.613281 19.988281 101.902344 L 16.859375 105 C 15.886719 105.964844 14.914062 106.929688 13.941406 107.894531 C 13.859375 107.972656 13.53125 108.289062 13.234375 108.574219 C 11.261719 110.472656 10.871094 110.847656 11.433594 114.1875 C 11.773438 116.234375 12.449219 118.308594 13.5 120.308594 C 14.464844 122.152344 15.765625 123.949219 17.433594 125.621094 C 19.511719 127.707031 22.921875 130.296875 26.492188 131.652344 C 28.53125 132.425781 30.632812 132.804688 32.609375 132.488281 C 32.507812 132.792969 32.410156 133.09375 32.296875 133.402344 C 31.988281 134.257812 31.640625 135.117188 31.257812 135.960938 C 28.835938 141.265625 31.324219 144.039062 35.191406 145.804688 C 37.121094 146.683594 39.417969 147.28125 41.554688 147.839844 C 41.992188 147.949219 42.425781 148.066406 42.976562 148.214844 C 45.507812 148.898438 49.875 150.152344 53.863281 150.40625 C 58.21875 150.679688 62.148438 149.78125 63.199219 145.871094 C 63.617188 144.324219 63.859375 143.136719 63.957031 141.972656 C 64.046875 140.894531 64.011719 139.804688 63.886719 138.457031 C 65.128906 135.707031 65.65625 134.929688 66.5625 133.605469 C 66.742188 133.339844 66.957031 133.027344 67.019531 132.929688 C 67.996094 131.488281 68.449219 130.460938 68.617188 129.308594 C 68.773438 128.195312 68.640625 127.089844 68.4375 125.394531 C 68.421875 125.230469 68.390625 124.996094 68.347656 124.6875 C 70.898438 125.011719 73.410156 125.1875 75.910156 125.203125 C 77.179688 125.210938 78.445312 125.175781 79.714844 125.109375 C 79.390625 125.273438 79.074219 125.4375 78.726562 125.617188 C 78.574219 125.695312 78.414062 125.777344 78.253906 125.859375 C 74.890625 127.589844 74.75 130.867188 75.804688 134.234375 C 76.753906 137.273438 78.707031 140.378906 79.933594 142.265625 C 82.507812 146.234375 84.964844 149.597656 87.945312 151.421875 C 91.070312 153.335938 94.640625 153.5625 99.25 151.070312 C 101.59375 149.800781 102.332031 148.507812 103.328125 146.761719 C 103.632812 146.230469 103.96875 145.652344 104.339844 145.078125 C 105.308594 144.4375 107.71875 142.449219 110.085938 140.492188 C 110.890625 139.828125 111.695312 139.164062 112.605469 138.425781 C 113.230469 138.886719 113.984375 139.203125 114.898438 139.421875 C 116.082031 139.707031 117.496094 139.835938 119.1875 139.957031 C 120.453125 140.050781 124.582031 140.046875 127.25 140.046875 C 128.074219 140.046875 128.757812 140.046875 129.167969 140.046875 C 131.925781 140.0625 134.148438 139.917969 135.828125 138.96875 C 137.617188 137.953125 138.679688 136.15625 138.910156 132.929688 C 139.011719 131.5 139.03125 130.617188 138.832031 129.714844 C 138.644531 128.867188 138.285156 128.105469 137.660156 126.984375 C 137.625 125.589844 137.585938 124.195312 137.550781 122.804688 C 137.511719 121.324219 137.46875 119.847656 137.429688 118.367188 C 137.382812 116.625 137.191406 115.210938 136.839844 113.816406 C 136.488281 112.433594 135.988281 111.105469 135.316406 109.507812 C 134.863281 108.425781 134.496094 107.433594 134.132812 106.460938 L 133.167969 106.816406 L 134.132812 106.460938 L 134.132812 106.457031 C 133.558594 104.90625 132.988281 103.390625 132.195312 101.773438 C 132.246094 101.460938 132.296875 101.125 132.347656 100.765625 C 132.859375 101.261719 133.371094 101.753906 133.882812 102.246094 L 136.148438 104.429688 C 137.875 106.09375 139.453125 107.605469 141.308594 108.699219 C 143.226562 109.828125 145.382812 110.484375 148.175781 110.355469 C 151.097656 110.214844 154.226562 108.984375 156.800781 107.085938 C 159.292969 105.246094 161.289062 102.765625 162.125 100.019531 C 162.367188 99.226562 162.609375 98.433594 162.847656 97.640625 C 163.039062 97.007812 163.234375 96.375 163.425781 95.738281 C 167.523438 96.433594 171.925781 96.660156 176.175781 96.214844 C 180.273438 95.78125 184.238281 94.738281 187.652344 92.917969 C 192.675781 90.234375 196.441406 86.289062 199.148438 81.601562 C 202.171875 76.363281 203.867188 70.191406 204.511719 63.839844 C 205.027344 58.742188 204.746094 51.820312 203.683594 45.140625 Z M 150.574219 87.953125 C 148.210938 87.160156 146.570312 86 144.492188 84.691406 C 145.058594 87.238281 145.316406 89.929688 144.5625 92.472656 C 143.371094 96.503906 141.441406 103.101562 146.917969 104.320312 C 149.003906 104.785156 149.949219 104.714844 152.890625 103.199219 C 150.507812 103.738281 149.308594 103.605469 147.671875 103.300781 C 146.1875 103.03125 145.402344 102.085938 144.988281 100.976562 C 145.503906 101.351562 146.351562 101.554688 147.792969 101.902344 C 151.855469 102.878906 155.722656 100.925781 156.480469 98.109375 C 156.917969 96.464844 156.84375 95.601562 157.78125 93.359375 C 158.621094 93.621094 159.488281 93.855469 160.378906 94.074219 C 159.875 95.710938 159.375 97.351562 158.871094 98.992188 C 157.566406 103.246094 152.484375 106.679688 147.996094 106.601562 C 143.84375 106.527344 141.214844 103.929688 138.351562 101.378906 C 136.375 99.625 134.476562 97.945312 132.59375 96.28125 C 127.433594 94.652344 123.292969 92.746094 118.5 89.199219 C 121.910156 93.207031 124.222656 95.425781 128.980469 97.421875 C 128.289062 104.476562 125.835938 109.621094 123.746094 116.375 C 122.800781 119.429688 115.328125 131.664062 113.257812 132.855469 C 111.785156 133.707031 102.535156 141.496094 100.796875 142.523438 C 99.503906 144.242188 98.367188 146.621094 96.417969 147.648438 C 90.484375 150.785156 86.667969 144.777344 83.476562 139.703125 C 82.023438 137.390625 77.984375 130.734375 81.503906 128.867188 C 84.832031 127.105469 86.695312 125.84375 90.09375 123.617188 C 90.589844 124.523438 91.445312 125.402344 92.003906 126.3125 C 91.882812 125.316406 91.757812 124.324219 91.632812 123.332031 C 91.410156 121.53125 91.417969 120.070312 91.5625 118.257812 C 91.703125 116.503906 91.839844 114.75 91.976562 112.996094 C 91.464844 114.777344 90.445312 116.5625 89.933594 118.34375 C 89.730469 119.054688 89.5625 119.632812 89.464844 120.167969 C 81.847656 121.722656 74.28125 121.820312 66.660156 120.460938 C 66.175781 117.640625 65.582031 114.699219 65.085938 112.59375 C 64.933594 114.953125 65.03125 121.476562 65.019531 125.132812 C 65.011719 127.964844 64.890625 128.933594 63.429688 131.339844 C 62.066406 133.59375 61.484375 134.105469 59.570312 137.917969 C 59.730469 140.320312 59.734375 141.910156 59.097656 144.191406 C 58.035156 147.984375 47.320312 145.042969 44.496094 144.269531 C 41.011719 143.316406 33.816406 141.902344 35.628906 137.261719 C 37.21875 133.179688 38.230469 128.875 39.007812 123.160156 C 32.632812 113.972656 26.703125 101.386719 25.5625 90.230469 C 24.679688 81.570312 25.210938 76.242188 27.082031 70.945312 C 30.054688 62.550781 34.207031 55.285156 40.875 49.433594 C 49.863281 41.542969 58.269531 38.375 71.429688 36.371094 C 68.265625 39.914062 65.136719 43.660156 61.722656 47.679688 C 58.269531 51.746094 56.214844 55.851562 54.019531 60.300781 C 50.992188 66.445312 51.054688 68.78125 55.074219 74.175781 C 58.535156 78.824219 60.402344 80.914062 61.914062 85.464844 C 60.667969 88.035156 60.210938 90.210938 59.792969 93.722656 C 64.03125 98.359375 67.183594 101.53125 71.296875 102.511719 C 75.335938 103.46875 78.707031 103.285156 82.320312 101.4375 C 90.339844 97.335938 97.761719 92.042969 106.8125 91.824219 C 110.996094 81.53125 110.574219 72.929688 108.566406 62.972656 C 107.191406 56.171875 106.640625 49.734375 106.214844 42.800781 C 104.515625 49.941406 104.199219 56.21875 105.457031 63.332031 C 106.976562 71.902344 108.15625 81.371094 103.933594 88.90625 C 95.75 89.53125 88.738281 94.507812 81.363281 98.328125 C 78.398438 99.863281 75.3125 100.015625 72.03125 99.113281 C 68.988281 98.277344 66.929688 96.261719 63.652344 92.476562 C 63.597656 88.679688 64.457031 86.925781 66.199219 83.484375 C 69.003906 77.957031 72.097656 72.816406 75.492188 67.378906 C 71.335938 72.398438 67.398438 76.589844 64.125 81.632812 C 62.875 78.070312 61.085938 76.261719 58.121094 72.25 C 55.230469 68.332031 54.925781 66.613281 57.089844 62.078125 C 59.265625 57.523438 61.109375 53.515625 64.8125 49.519531 C 71.210938 42.609375 77.074219 34.917969 84.070312 28.113281 C 87.867188 24.417969 89.410156 24.546875 94.449219 23.78125 C 99.003906 23.09375 103.453125 22.222656 108.097656 21.140625 C 103.605469 21.5625 99.261719 21.714844 94.886719 21.824219 C 94.84375 21.824219 94.796875 21.824219 94.753906 21.828125 C 99.054688 16.332031 101.554688 13.269531 108.542969 10.230469 C 125.746094 2.757812 136.679688 1.953125 150.195312 13.3125 C 153.699219 16.257812 156.757812 19.117188 160.3125 21.65625 C 159.023438 21.765625 157.914062 22 156.445312 22.574219 C 158.230469 22.234375 160.292969 22.570312 162.148438 22.910156 C 162.667969 23.25 163.203125 23.578125 163.75 23.898438 C 166.257812 25.378906 167.683594 26.195312 169.378906 28.554688 C 171.171875 31.054688 172.664062 33.546875 173.980469 36.296875 C 173.117188 35.988281 172.394531 35.730469 171.75 35.539062 C 171.273438 35.320312 170.757812 35.175781 170.210938 35.125 C 169.125 35.019531 168.089844 35.285156 167.222656 35.820312 C 167.1875 35.835938 167.15625 35.851562 167.121094 35.867188 C 165.734375 36.542969 163.585938 37.3125 162.148438 37.546875 C 162.878906 37.796875 164.503906 37.894531 165.265625 37.589844 C 165.371094 37.550781 165.472656 37.519531 165.582031 37.492188 C 165.234375 38.082031 165.011719 38.746094 164.941406 39.46875 C 164.847656 40.421875 165.042969 41.339844 165.453125 42.136719 C 165.457031 42.136719 165.457031 42.140625 165.457031 42.144531 C 165.585938 42.449219 165.769531 42.730469 165.964844 42.933594 C 165.308594 43.175781 164.636719 43.453125 163.945312 43.753906 C 167.152344 43.265625 170.042969 43.183594 173.175781 43.59375 C 173.378906 44.582031 173.589844 45.625 173.78125 46.6875 C 173.394531 46.71875 173.007812 46.75 172.617188 46.78125 C 172.589844 46.78125 172.554688 46.785156 172.523438 46.789062 C 171.042969 45.605469 169.394531 45.804688 167.140625 46.316406 C 160.285156 47.882812 161.898438 51.726562 158.746094 57.523438 C 162.019531 53.519531 161.773438 49.332031 167.109375 48.070312 C 168.355469 47.773438 169.199219 47.40625 170.042969 47.53125 C 168.527344 48.292969 167.21875 49.558594 166.699219 51.023438 C 165.234375 55.160156 166.140625 58.644531 164.535156 62.503906 C 166.527344 59.050781 166.648438 55.683594 168.429688 52.050781 C 169.070312 50.746094 171.441406 48.65625 172.902344 48.625 C 173.300781 48.617188 173.699219 48.609375 174.101562 48.597656 C 174.453125 50.898438 174.667969 53.179688 174.53125 55.070312 C 174.28125 58.527344 173.382812 63.652344 172.847656 65.617188 C 174.652344 63.296875 175.472656 58.378906 176.265625 54.921875 C 177.09375 51.320312 176.882812 46.996094 176.160156 43.125 C 175.171875 37.816406 180.636719 38.679688 183.8125 36.179688 C 186.144531 34.335938 187.753906 31.402344 189.894531 29.320312 C 192.015625 27.257812 195.355469 30.289062 196.191406 32.304688 C 199.8125 41.0625 201.460938 54.839844 200.503906 63.667969 C 199.429688 73.574219 194.644531 84.386719 185.910156 89.261719 C 174.773438 95.480469 161.640625 91.683594 150.574219 87.953125 Z M 134.75 131.949219 C 134.386719 136.035156 133.023438 136.304688 129.433594 136.242188 C 127.804688 136.214844 121.3125 136.183594 119.664062 136.042969 C 117.335938 135.84375 116.027344 135.632812 115.316406 135.101562 C 118.972656 132.417969 125.1875 121.332031 126.402344 117.515625 C 127.683594 113.484375 129.085938 109.964844 130.128906 106.238281 C 130.605469 107.796875 130.988281 109.339844 131.683594 110.996094 C 132.851562 113.757812 133.421875 115.46875 133.503906 118.433594 C 133.589844 121.5625 133.679688 124.691406 133.769531 127.820312 C 134.769531 129.574219 134.925781 129.949219 134.75 131.949219 Z M 24.675781 100.988281 C 26.996094 109.019531 30.953125 116.917969 35.339844 123.554688 C 35.339844 123.59375 35.339844 123.628906 35.339844 123.671875 C 35.0625 124.8125 34.746094 125.921875 34.078125 126.816406 C 30.945312 131.011719 22.96875 124.851562 20.660156 122.496094 C 18.136719 119.917969 16.449219 116.867188 16.046875 114.007812 C 15.753906 111.917969 16.039062 111.867188 17.492188 110.390625 C 19.457031 108.40625 21.421875 106.417969 23.382812 104.429688 C 23.8125 103.28125 24.242188 102.132812 24.675781 100.988281 Z M 20.238281 50.457031 C 19.644531 51.738281 19.222656 52.707031 18.933594 53.703125 C 17.683594 58.019531 19.5 61.875 15.578125 65.003906 C 17.421875 68.722656 17.335938 70.203125 21.621094 68.488281 C 23.273438 67.824219 24.636719 66.894531 25.855469 65.796875 C 25.273438 67.296875 24.738281 68.84375 24.230469 70.441406 C 24.144531 70.707031 24.066406 70.972656 23.988281 71.234375 C 20.921875 72.535156 16.890625 73.363281 15.347656 70.140625 C 14.601562 68.578125 14.175781 67.042969 13.628906 65.066406 C 8.582031 59.839844 16.128906 52.933594 20.238281 50.457031 Z M 22.71875 56 C 22.097656 55.375 21.597656 54.953125 20.792969 55.042969 C 20.859375 54.515625 20.949219 54.007812 21.078125 53.527344 C 21.140625 53.28125 21.210938 53.039062 21.285156 52.796875 C 22.328125 53.40625 22.605469 54.507812 22.71875 56 Z M 174.0625 36.46875 C 174.253906 36.867188 174.4375 37.277344 174.625 37.691406 C 174.472656 37.800781 174.328125 37.921875 174.191406 38.046875 C 173.941406 37.464844 173.582031 36.9375 173.132812 36.496094 C 173.433594 36.484375 173.742188 36.472656 174.0625 36.46875 Z M 28.347656 60.203125 L 28.34375 60.203125 Z M 11.917969 65.753906 Z M 67.144531 123.488281 L 67.148438 123.488281 Z M 112.636719 137.070312 Z M 131.125 101.929688 Z M 20.757812 66.488281 L 20.726562 66.398438 Z M 198.242188 81.078125 L 198.265625 81.09375 Z M 198.242188 81.078125 "/>
<path style=" stroke:none;fill-rule:nonzero;fill:rgb(100%,100%,100%);fill-opacity:1;" d="M 2.949219 65.230469 C 3.753906 56.136719 5.523438 52.210938 11.984375 45.367188 C 3.878906 51.078125 1.855469 53.671875 2.949219 65.230469 "/>
<path style=" stroke:none;fill-rule:nonzero;fill:rgb(100%,100%,100%);fill-opacity:1;" d="M 0.859375 57.800781 C 1.753906 53.710938 2.585938 52.164062 5.105469 48.804688 C 1.011719 51.664062 0.480469 52.839844 0.859375 57.800781 "/>
<path style=" stroke:none;fill-rule:nonzero;fill:rgb(100%,100%,100%);fill-opacity:1;" d="M 95.941406 0.746094 C 91.085938 1.917969 90.160156 2.816406 88.703125 7.574219 C 91.027344 4.089844 92.363281 2.957031 95.941406 0.746094 "/>
<path style=" stroke:none;fill-rule:nonzero;fill:rgb(100%,100%,100%);fill-opacity:1;" d="M 103.597656 0.0546875 C 93.964844 2.414062 91.136719 4.09375 87.9375 15.253906 C 92.003906 7.078125 95.082031 4.070312 103.597656 0.0546875 "/>
<path style=" stroke:none;fill-rule:nonzero;fill:rgb(100%,100%,100%);fill-opacity:1;" d="M 124.335938 40.738281 C 125.363281 36.191406 127.1875 31.808594 134.246094 28.421875 C 124.886719 30.765625 123.132812 34.695312 124.335938 40.738281 "/>
<path style=" stroke:none;fill-rule:nonzero;fill:rgb(100%,100%,100%);fill-opacity:1;" d="M 183.894531 41.054688 C 189.4375 39.078125 192.109375 34.621094 193.4375 29.378906 C 191.265625 33.773438 187.917969 37.449219 183.371094 39.699219 C 180.929688 40.90625 179.371094 40.484375 176.644531 40.226562 C 179.417969 41.023438 181.171875 42.023438 183.894531 41.054688 "/>
<path style=" stroke:none;fill-rule:nonzero;fill:rgb(100%,100%,100%);fill-opacity:1;" d="M 146.132812 45.507812 C 145.394531 43.960938 144.097656 42.851562 142.601562 42.304688 C 143.960938 41.578125 145.296875 40.8125 146.339844 39.867188 C 143.285156 41.28125 139.734375 40.933594 137.113281 42.703125 C 134.808594 44.261719 131.625 49.199219 129.28125 51.292969 C 130.976562 50.632812 132.613281 49.492188 134.121094 48.292969 C 134.125 49.183594 134.320312 50.089844 134.730469 50.949219 C 135.339844 52.226562 136.328125 53.203125 137.496094 53.816406 C 136.652344 54.925781 135.953125 56.171875 135.453125 57.550781 C 139.914062 52.261719 146.386719 48.265625 152.472656 46.558594 C 150.769531 46.535156 148.757812 46.851562 146.707031 47.527344 C 146.628906 46.84375 146.445312 46.164062 146.132812 45.507812 "/>
<path style=" stroke:none;fill-rule:nonzero;fill:rgb(100%,100%,100%);fill-opacity:1;" d="M 139.710938 85.480469 C 139.492188 86.847656 139.195312 88.550781 138.980469 89.921875 C 139.558594 88.371094 140.257812 86.570312 140.929688 85.089844 C 141.648438 83.527344 142.050781 83.378906 143.566406 82.554688 C 144.640625 81.96875 146.597656 81.164062 147.671875 80.578125 C 146.566406 80.765625 144.582031 81.171875 143.472656 81.355469 C 140.515625 81.855469 140.167969 82.566406 139.710938 85.480469 "/>
<path style=" stroke:none;fill-rule:nonzero;fill:rgb(100%,100%,100%);fill-opacity:1;" d="M 89.199219 32.597656 C 85.765625 35.988281 82.433594 47.628906 81.371094 52.285156 C 83.046875 48.417969 87.246094 37.59375 90.464844 34.84375 C 91.355469 34.082031 91.976562 33.613281 92.644531 33.273438 C 90.339844 37.140625 90.507812 38.101562 91.320312 43.28125 C 92.003906 38.015625 93.828125 35.980469 96.816406 32.054688 C 100.089844 31.230469 103.15625 30.246094 106.515625 28.9375 C 102.726562 29.363281 98.941406 29.757812 95.152344 30.113281 C 91.96875 30.417969 91.457031 30.367188 89.199219 32.597656 "/>
<path style=" stroke:none;fill-rule:nonzero;fill:rgb(2%,2%,2%);fill-opacity:1;" d="M 135.953125 52.410156 C 135.324219 51.101562 135.886719 49.527344 137.195312 48.902344 C 138.507812 48.277344 140.089844 48.835938 140.714844 50.144531 C 140.773438 50.269531 140.820312 50.398438 140.859375 50.523438 C 139.605469 51.453125 138.457031 52.550781 137.496094 53.816406 C 136.847656 53.558594 136.273438 53.082031 135.953125 52.410156 "/>
<path style=" stroke:none;fill-rule:nonzero;fill:rgb(2%,2%,2%);fill-opacity:1;" d="M 165.257812 41.074219 C 165.363281 39.988281 166.289062 39.191406 167.371094 39.296875 C 168.453125 39.402344 169.253906 40.367188 169.152344 41.453125 C 169.128906 41.683594 169.066406 41.898438 168.972656 42.097656 C 167.980469 42.269531 166.988281 42.558594 165.964844 42.933594 C 165.539062 42.496094 165.199219 41.699219 165.257812 41.074219 "/>
</g>
</svg>
