<?xml version="1.0" encoding="UTF-8"?>
<svg xmlns="http://www.w3.org/2000/svg" xmlns:xlink="http://www.w3.org/1999/xlink" width="800pt" height="720pt" viewBox="0 0 800 720" version="1.1">
<g id="surface1">
<path style=" stroke:none;fill-rule:nonzero;fill:rgb(44%,44%,44%);fill-opacity:1;" d="M 477.4375 563.671875 L 477.4375 717.953125 L 515.316406 717.953125 L 515.316406 647.046875 L 523.128906 647.191406 L 523.128906 717.953125 L 561.433594 717.953125 L 561.433594 563.671875 L 523.128906 563.671875 L 523.128906 620.914062 L 515.316406 620.914062 L 515.316406 563.671875 Z M 477.4375 563.671875 "/>
<path style=" stroke:none;fill-rule:nonzero;fill:rgb(44%,44%,44%);fill-opacity:1;" d="M 571.679688 563.671875 L 608.574219 563.671875 L 608.574219 717.953125 L 571.679688 717.953125 Z M 571.679688 563.671875 "/>
<path style=" stroke:none;fill-rule:nonzero;fill:rgb(44%,44%,44%);fill-opacity:1;" d="M 614.613281 563.671875 L 643.757812 717.953125 L 687.746094 717.953125 L 716.886719 563.671875 L 677.726562 563.671875 L 668.074219 629.6875 C 667.269531 632.214844 664.550781 632.214844 664.066406 629.6875 L 654.417969 563.667969 Z M 614.613281 563.671875 "/>
<path style=" stroke:none;fill-rule:nonzero;fill:rgb(44%,44%,44%);fill-opacity:1;" d="M 797.949219 563.671875 L 724.71875 563.671875 L 724.71875 717.953125 L 797.949219 717.953125 L 797.949219 677.496094 L 757.230469 677.148438 L 757.230469 659.808594 L 776.628906 659.808594 L 776.628906 619.644531 L 757.230469 619.644531 L 757.230469 604.125 L 797.949219 604.125 Z M 797.949219 563.671875 "/>
<path style=" stroke:none;fill-rule:evenodd;fill:rgb(14%,14%,14%);fill-opacity:1;" d="M 402.5 95.800781 C 396.332031 78.910156 184.164062 -3.574219 181.453125 5.480469 C 142.492188 15.636719 126.636719 60.542969 99.835938 88.984375 L 40.324219 85.578125 C 14.105469 119.289062 0.351562 153.734375 9.71875 189.535156 C 43.320312 235.0625 82.324219 273.800781 106.636719 330.984375 C 108.558594 357.9375 223.292969 333.8125 247.886719 328.476562 C 214.292969 352.523438 185.035156 389.796875 197.609375 497.148438 C 209.085938 547.558594 216.933594 603.84375 318.726562 660.859375 C 332.128906 668.363281 359.855469 677.023438 377 683.339844 C 393.394531 690.859375 412.566406 693.949219 466.65625 677.410156 C 497.953125 663.917969 531.746094 655.789062 562.375 642.332031 L 525.5625 644.0625 C 474.867188 645.164062 435.730469 648.945312 423.65625 634.78125 L 377 554.238281 L 404.199219 501.40625 C 441.847656 505.265625 454.339844 535.792969 487.519531 547.417969 L 526.628906 518.445312 C 640.222656 585.5 685.414062 475.949219 698.363281 390.632812 C 696.984375 355.917969 623.203125 401.519531 627.675781 385.289062 C 629.410156 347.972656 598.992188 299.152344 579.339844 261.113281 L 602.082031 173.105469 C 612.402344 163.910156 554.308594 66.015625 506.867188 53.808594 C 465.242188 43.09375 402.5 95.800781 402.5 95.800781 Z M 402.5 95.800781 "/>
<path style=" stroke:none;fill-rule:nonzero;fill:rgb(30%,30%,30%);fill-opacity:1;" d="M 589.109375 282.839844 C 589.515625 292.292969 589.472656 303.789062 590.386719 310.960938 C 590.226562 316.429688 586.128906 316.632812 582.734375 317.777344 L 604.839844 325.871094 C 609.226562 333.257812 612.753906 340.640625 616.316406 348.027344 C 620.449219 366.195312 617.363281 366.714844 614.617188 368.050781 C 606.59375 368.132812 598.59375 368.148438 591.128906 366.5625 C 594.472656 368.328125 595.210938 369.613281 595.5625 371.875 C 596.214844 376.042969 593.53125 381.738281 589.109375 387.226562 C 595.648438 390.851562 607.566406 394.402344 616.421875 397.769531 L 626.519531 375.296875 C 621.945312 342.277344 608.082031 311.847656 589.109375 282.839844 Z M 589.109375 282.839844 "/>
<path style=" stroke:none;fill-rule:nonzero;fill:rgb(30%,30%,30%);fill-opacity:1;" d="M 630.367188 393.585938 C 642.625 398.695312 659.5625 397.195312 683.042969 385.09375 C 686.535156 382.609375 689.789062 384.09375 683.539062 388.179688 C 652.742188 415.816406 638 401.992188 630.367188 393.582031 Z M 630.367188 393.585938 "/>
<path style=" stroke:none;fill-rule:nonzero;fill:rgb(30%,30%,30%);fill-opacity:1;" d="M 685.398438 381.472656 C 689.039062 388.445312 686.832031 394.117188 685.609375 400.003906 C 681.808594 429.964844 672.472656 453.652344 654.152344 478.402344 C 594.570312 574.191406 534.417969 514.253906 486.457031 475.246094 L 466.621094 524.953125 C 465.566406 529.3125 461.1875 532.703125 492.167969 546.34375 L 523.730469 524.050781 C 644.097656 615.636719 729.394531 395.859375 685.394531 381.476562 Z M 685.398438 381.472656 "/>
<path style=" stroke:none;fill-rule:nonzero;fill:rgb(30%,30%,30%);fill-opacity:1;" d="M 500.972656 467.070312 C 492.851562 467.652344 468.683594 475.871094 467.609375 480.628906 L 478.730469 464.058594 Z M 500.972656 467.070312 "/>
<path style=" stroke:none;fill-rule:nonzero;fill:rgb(30%,30%,30%);fill-opacity:1;" d="M 485.183594 365.496094 C 486.667969 365.496094 493.8125 367.414062 493.046875 366.988281 C 491.949219 366.378906 492.925781 377.003906 495.171875 382.539062 L 486.457031 401.5 C 503.148438 382.246094 529.542969 383.527344 554.046875 381.046875 L 542.355469 373.804688 C 544.386719 367.03125 541.996094 361.671875 540.867188 355.910156 Z M 485.183594 365.496094 "/>
<path style=" stroke:none;fill-rule:nonzero;fill:rgb(30%,30%,30%);fill-opacity:1;" d="M 526.199219 308.40625 C 508.289062 313.898438 491.144531 322.867188 479.636719 341.988281 C 488.417969 310.472656 490.207031 311.667969 493.042969 310.113281 C 505.320312 304.621094 515.378906 308.042969 526.199219 308.40625 Z M 526.199219 308.40625 "/>
<path style=" stroke:none;fill-rule:nonzero;fill:rgb(7%,7%,7%);fill-opacity:1;" d="M 430.558594 677.800781 C 408.902344 701.695312 360.582031 675.992188 320.453125 662.886719 C 218.484375 598.046875 198.566406 537.007812 197.183594 477.128906 C 191.9375 391.351562 218.277344 341.511719 251.59375 329.710938 C 229.542969 372.214844 219.265625 448.511719 229.488281 505.246094 C 237.742188 536.8125 237.910156 590.046875 290.722656 618.542969 C 316.585938 633.101562 309.582031 644.4375 327.070312 658.074219 C 346.234375 673.019531 399.667969 687.222656 430.558594 677.800781 Z M 430.558594 677.800781 "/>
<path style=" stroke:none;fill-rule:nonzero;fill:rgb(7%,7%,7%);fill-opacity:1;" d="M 462.910156 281.390625 C 426.246094 229.398438 374.679688 209.882812 316.527344 207.75 C 328.179688 203.949219 339.835938 201.972656 351.488281 196.351562 C 354.34375 193.355469 353.410156 188.078125 352.339844 182.71875 C 296.363281 168.101562 261.035156 150.039062 216.316406 133.292969 L 337.042969 162.265625 C 418.570312 165.363281 411.570312 185.492188 462.914062 281.394531 Z M 462.910156 281.390625 "/>
<path style=" stroke:none;fill-rule:nonzero;fill:rgb(7%,7%,7%);fill-opacity:1;" d="M 502.164062 256.320312 C 475.070312 217.640625 448.789062 170.695312 413.117188 140.839844 C 327.003906 101.972656 241.820312 73.105469 141.988281 46.839844 L 173.851562 5.867188 C 279.789062 30.046875 379.292969 70.511719 468.417969 137.21875 C 483.5 175.347656 493.554688 213.527344 502.15625 256.316406 Z M 502.164062 256.320312 "/>
<path style=" stroke:none;fill-rule:nonzero;fill:rgb(7%,7%,7%);fill-opacity:1;" d="M 556.789062 187.96875 C 556.789062 187.96875 541.597656 153.890625 534.203125 140.875 C 517.046875 121.863281 508.371094 86.433594 473.234375 69.738281 C 484.347656 72.738281 491.953125 69.164062 514.640625 89.730469 L 550.375 157.519531 Z M 556.789062 187.96875 "/>
<path style=" stroke:none;fill-rule:nonzero;fill:rgb(7%,7%,7%);fill-opacity:1;" d="M 575.6875 247.007812 C 579.1875 217.480469 585.84375 170.121094 578.207031 151.40625 C 556.96875 122.910156 535.574219 93.453125 514.175781 66.105469 C 510.632812 62.804688 508.078125 58.328125 505.289062 54.835938 C 535.375 62.632812 566.773438 83.550781 609.121094 166.140625 Z M 575.6875 247.007812 "/>
<path style=" stroke:none;fill-rule:nonzero;fill:rgb(100%,100%,100%);fill-opacity:1;" d="M 449.191406 250.496094 C 437.207031 241.0625 426.527344 207.703125 408.367188 200.769531 C 391.558594 199.363281 385.394531 194.074219 363.289062 198.578125 C 371.308594 194.558594 378.875 189.421875 387.398438 186.667969 C 393.171875 185.304688 398.585938 186.816406 404.089844 187.574219 C 405.453125 186.933594 406.34375 186.132812 406.011719 184.925781 C 383.761719 171.175781 338.117188 170.980469 307.304688 163.128906 C 343.066406 164.328125 382.632812 162.34375 409.507812 170.964844 C 431.117188 190.140625 438.136719 226.257812 449.191406 250.496094 Z M 449.191406 250.496094 "/>
<path style=" stroke:none;fill-rule:nonzero;fill:rgb(100%,100%,100%);fill-opacity:1;" d="M 514.71875 89.621094 C 519.679688 90.074219 546.378906 132.304688 547.632812 139.332031 C 549.851562 154.691406 555.328125 171.914062 556.800781 187.988281 C 552.402344 172.570312 547.609375 157.15625 541.621094 141.742188 C 539.867188 137.496094 535.441406 127.898438 523.132812 114.328125 C 517.40625 104.757812 516.167969 97.238281 514.71875 89.621094 Z M 514.71875 89.621094 "/>
<path style=" stroke:none;fill-rule:nonzero;fill:rgb(100%,100%,100%);fill-opacity:1;" d="M 605.191406 319.640625 L 593.765625 319.640625 L 606.390625 322.953125 Z M 605.191406 319.640625 "/>
<path style=" stroke:none;fill-rule:nonzero;fill:rgb(100%,100%,100%);fill-opacity:1;" d="M 527.253906 308.230469 C 515.765625 306.820312 503.980469 306.632812 492.496094 309.15625 C 487.8125 315.445312 487.492188 321.84375 485.445312 327.753906 C 499.410156 312.363281 504.949219 311.421875 527.253906 308.230469 Z M 527.253906 308.230469 "/>
<path style=" stroke:none;fill-rule:nonzero;fill:rgb(100%,100%,100%);fill-opacity:1;" d="M 683.910156 387.65625 C 677.519531 392.757812 676.878906 397.558594 657.980469 403.3125 C 644.195312 406.574219 636.410156 401.046875 629.921875 393.621094 C 639.757812 396.4375 641.332031 403.867188 667.703125 395.539062 Z M 683.910156 387.65625 "/>
<path style=" stroke:none;fill-rule:nonzero;fill:rgb(100%,100%,100%);fill-opacity:1;" d="M 626.628906 390.847656 C 622.03125 403.496094 617.070312 416.28125 612.070312 428.128906 C 600.164062 442.089844 605.238281 434.132812 587.414062 455.820312 C 593.117188 447.023438 600.535156 438.570312 604.417969 429.40625 C 607.144531 423.371094 610.542969 416.972656 612.042969 411.609375 C 607.320312 409.25 597.644531 409.0625 596.332031 409.910156 C 580.488281 419.257812 577.628906 429.148438 568.285156 438.78125 C 575.058594 427.957031 580.839844 416.140625 588.691406 406.398438 C 589.585938 405.132812 595.394531 404.890625 598.96875 404.144531 C 593.417969 403.191406 583.140625 401.195312 582.3125 401.285156 C 571.976562 403.769531 566.183594 412.773438 558.507812 418.753906 C 564.105469 410.675781 569.257812 402.265625 576.363281 395.320312 C 577.066406 394.503906 596.269531 396.1875 606.222656 400.160156 L 606.417969 404.117188 L 612.070312 406.398438 L 616.320312 395.746094 Z M 626.628906 390.847656 "/>
<path style=" stroke:none;fill-rule:nonzero;fill:rgb(100%,100%,100%);fill-opacity:1;" d="M 501.230469 467.113281 C 498.679688 466.242188 476.148438 463.34375 476.148438 464.023438 C 467.5 470.179688 466.1875 476.070312 466.375 481.171875 C 480.765625 467.015625 480.226562 466.972656 501.230469 467.113281 Z M 501.230469 467.113281 "/>
<path style=" stroke:none;fill-rule:nonzero;fill:rgb(100%,100%,100%);fill-opacity:1;" d="M 484.117188 365.289062 C 484.117188 365.289062 500.375 362.917969 500.058594 364.4375 C 498.882812 370.074219 502.046875 383.820312 502.398438 381.90625 L 493.257812 389.359375 C 512.398438 379.738281 532.546875 381.671875 552.980469 380.199219 C 552.980469 380.199219 535.777344 375.449219 536.828125 375.300781 C 540.667969 374.757812 535.808594 357.355469 534.492188 356.980469 C 537.765625 355.871094 540.960938 355.039062 544.265625 354.210938 C 519.664062 347.773438 505.433594 351.566406 484.117188 365.289062 Z M 484.117188 365.289062 "/>
<path style=" stroke:none;fill-rule:nonzero;fill:rgb(100%,100%,100%);fill-opacity:1;" d="M 624.820312 377.425781 L 621.207031 379.234375 C 620.695312 368.648438 609.328125 369.425781 599.742188 369.328125 L 591.878906 367.410156 C 594.269531 369.625 601.660156 369.453125 598.679688 374.230469 C 596.167969 375.570312 595.015625 381.324219 593.578125 386.160156 L 589.328125 386.371094 C 596.835938 389.304688 603.804688 391.878906 612.070312 395.320312 L 616.957031 396.0625 L 628.648438 389.78125 Z M 624.820312 377.425781 "/>
<path style=" stroke:none;fill-rule:nonzero;fill:rgb(0%,0%,0%);fill-opacity:1;" d="M 517.0625 370.289062 C 515.230469 366.667969 506.027344 367.183594 504.042969 369.523438 C 502.429688 371.425781 503.941406 383.636719 506.007812 381.578125 C 509 378.949219 512.902344 377.851562 517.59375 378.0625 C 518.183594 375.808594 517.976562 373.371094 517.0625 370.289062 Z M 517.0625 370.289062 "/>
<path style=" stroke:none;fill-rule:nonzero;fill:rgb(0%,0%,0%);fill-opacity:1;" d="M 605.34375 388.480469 C 606.207031 387.847656 608.035156 381.726562 607.445312 379.894531 C 606.238281 375.570312 597.675781 376.480469 597.675781 376.480469 C 595.585938 377.710938 593.757812 384.449219 594.519531 386.671875 C 594.886719 388.554688 603.96875 389.152344 605.339844 388.480469 Z M 605.34375 388.480469 "/>
<path style=" stroke:none;fill-rule:nonzero;fill:rgb(100%,100%,100%);fill-opacity:1;" d="M 239.285156 599.710938 L 244.695312 600.242188 C 276.75 615.980469 329.535156 639.320312 405.949219 626.777344 L 417.941406 645.644531 C 384.285156 662 348.089844 658.234375 314.171875 659.382812 Z M 239.285156 599.710938 "/>
<path style=" stroke:none;fill-rule:nonzero;fill:rgb(100%,100%,100%);fill-opacity:1;" d="M 193.261719 475.28125 L 209.320312 542.695312 C 252.3125 569.570312 325.753906 600.351562 386.96875 597.867188 L 373.441406 566.828125 C 245.65625 539.691406 234.847656 505.386719 193.265625 475.273438 Z M 193.261719 475.28125 "/>
<path style=" stroke:none;fill-rule:nonzero;fill:rgb(100%,100%,100%);fill-opacity:1;" d="M 233.222656 337.191406 C 241.070312 389.433594 251.546875 429.039062 296.972656 462.214844 C 324.816406 482.238281 352.453125 502.179688 386.070312 518.636719 C 386.070312 518.636719 383.121094 533.972656 380.660156 533.699219 C 280.621094 522.585938 207.378906 439.632812 198.507812 401.746094 C 207.101562 372.683594 219.425781 354.53125 233.21875 337.191406 Z M 233.222656 337.191406 "/>
<path style=" stroke:none;fill-rule:nonzero;fill:rgb(100%,100%,100%);fill-opacity:1;" d="M 281.308594 307.59375 C 294.640625 365.492188 326.425781 424.136719 358.019531 477.335938 C 369.601562 492.03125 372.632812 498.515625 390.484375 507.464844 C 414.613281 515.101562 431.671875 513.152344 449.1875 512.003906 C 444.386719 503.121094 440.121094 493.839844 434.613281 485.492188 C 395.398438 454.480469 413.519531 426.242188 423.9375 408.367188 C 402.132812 402.855469 373.242188 391.148438 369.261719 375.746094 C 362.863281 325.925781 366.109375 310.125 372.515625 284.535156 C 342.988281 290.761719 313.070312 296.933594 281.308594 307.59375 Z M 281.308594 307.59375 "/>
<path style=" stroke:none;fill-rule:nonzero;fill:rgb(100%,100%,100%);fill-opacity:1;" d="M 172.988281 0.046875 C 163.285156 6.386719 153.933594 15.453125 143.878906 25.753906 C 127.203125 43.015625 116.117188 59.851562 99.144531 72.332031 C 95.75 75.261719 86.222656 79.972656 74.25 80.671875 C 68.605469 80.957031 64.929688 81.890625 54.566406 80.585938 C 45.421875 75.636719 36.738281 78.855469 28.261719 88.996094 C 18.964844 102.363281 7.191406 127.746094 2.296875 143.722656 C -7.789062 184.472656 17.929688 218.046875 42.597656 243.921875 C 64.539062 265.359375 77.191406 278.757812 86.199219 298.410156 C 93.023438 311.15625 98.078125 328.648438 103.546875 340.914062 C 105.519531 344.800781 105.109375 344.78125 110.421875 345.953125 C 121.886719 348.398438 137.792969 348.417969 151.953125 349.636719 C 158.078125 349.722656 166.492188 349.492188 174.464844 348.664062 C 185.449219 346.589844 198.355469 344.554688 209.171875 340.816406 C 219.742188 338.210938 229.160156 334.609375 237.648438 331.289062 C 236.554688 335.003906 228.46875 338.582031 225.433594 343.289062 C 196.660156 384.484375 188.777344 421.136719 193.785156 478.972656 C 196.621094 504.605469 202.503906 525.855469 211.378906 550.167969 C 215.441406 561.292969 224.085938 578.914062 232.367188 590.621094 C 257 625.425781 312.105469 670.121094 388.816406 687.324219 C 402.199219 689.152344 417.386719 688.179688 431.671875 684.375 C 469.535156 672.898438 546.699219 645.753906 546.699219 645.753906 C 546.699219 645.753906 478.203125 651.421875 446.832031 648.320312 C 439.570312 647.183594 431.570312 646.796875 426.507812 641.847656 C 425.660156 640.753906 422.578125 634.542969 424.570312 634.488281 C 427.285156 634.410156 435.082031 631.175781 447.121094 630.101562 C 421.417969 627.335938 421.785156 627.367188 419.910156 622.683594 C 416.992188 615.417969 412.523438 605.484375 407.925781 596.792969 C 419.222656 597.746094 444.226562 599.148438 452.714844 590.390625 C 452.714844 590.390625 437.917969 592.097656 424.839844 590.566406 C 420.433594 590.046875 412.925781 587.367188 410.671875 586.539062 C 404.800781 584.253906 399.96875 583.542969 398.839844 582.054688 C 396.804688 576.863281 395.421875 575.121094 392.960938 568.167969 C 389.628906 558.964844 389.363281 548.699219 388.730469 539.300781 C 397.285156 549.847656 408.183594 558.722656 422.613281 563.253906 C 422.800781 562.863281 441.335938 571.3125 454.796875 566.96875 L 457.585938 566.066406 C 457.585938 566.316406 448.667969 566.851562 445.394531 565.230469 C 418.019531 553.59375 413.898438 543.410156 409.480469 538.351562 L 397.660156 520.644531 C 401.253906 513.476562 403.285156 513.203125 408.050781 513.136719 C 422.457031 514.738281 428.726562 515.96875 437.496094 513.855469 C 443.417969 526.046875 445.019531 538.3125 458.507812 547.183594 C 503.441406 560.519531 513.203125 543.222656 524.085938 527.9375 C 556.414062 551.664062 609.046875 558.980469 645.597656 528.351562 C 692.066406 474.582031 706.777344 389.8125 702.65625 384.972656 C 696.855469 375.128906 689.242188 364.976562 682.703125 366.378906 C 659.398438 372.738281 650.804688 384.5625 627.714844 381.863281 C 630.464844 381.710938 635.089844 381.636719 635.125 381.375 C 636.902344 361.820312 634.980469 352.359375 634.121094 350.734375 C 627.117188 335.28125 617.914062 319.019531 611.5 306.832031 C 609.847656 304.300781 604.992188 285.097656 596.855469 277.511719 C 593.363281 274.53125 584.824219 266.675781 584.824219 266.675781 L 584.097656 275.027344 C 584.097656 275.027344 587.4375 275.53125 588.707031 280.703125 C 593.527344 300.316406 618.058594 346.691406 619.859375 348.914062 C 628.554688 362.949219 620.742188 380.4375 627.351562 390.246094 C 627.988281 391.492188 640.839844 390.136719 650.796875 390.75 C 667.175781 387.226562 666.484375 380.007812 680.632812 378.921875 C 690.164062 378.191406 691.121094 396.089844 690.996094 397.480469 C 689.21875 417.242188 683.207031 440.222656 674.003906 461.207031 C 654.875 498.0625 633.453125 531.164062 603.070312 535.777344 C 566.007812 542.253906 546.75 526.050781 526.660156 515.734375 L 518.976562 522.289062 C 492.863281 548.289062 461.863281 545.980469 449.183594 512.007812 C 442.871094 498.828125 434.644531 490.753906 427.601562 479.449219 L 390.253906 506.351562 C 387.144531 512.726562 383.320312 522.78125 378.675781 534.015625 C 375.449219 541.824219 372.742188 555.234375 372.917969 566.378906 C 368.128906 574.535156 389.5 607.613281 403.003906 627.730469 C 406.988281 633.667969 414.425781 644.039062 414.675781 644.6875 C 417.355469 651.632812 423.21875 657.765625 423.574219 658.515625 C 448.644531 691.210938 391.949219 683.683594 380.242188 681.707031 C 357.140625 678.027344 334.542969 668.375 313.304688 655.472656 C 312.074219 654.722656 310.84375 653.964844 309.621094 653.195312 C 284.382812 637.300781 261.15625 616.96875 241.410156 596.855469 C 229.636719 583.523438 218.425781 556.195312 210.144531 536.820312 C 197.734375 490.238281 179.921875 409.5 228.167969 348.316406 C 231.226562 344.820312 234.527344 338.996094 237.335938 337.84375 C 251.671875 328.148438 267.238281 321.542969 283.976562 317.871094 L 282.285156 307.019531 C 273.925781 308.921875 245.78125 319.214844 237.820312 323.523438 C 219.722656 328.769531 204.710938 334.25 181.644531 340.023438 C 174.148438 340.941406 166.773438 340.957031 159.582031 339.980469 C 142.988281 337.726562 114.707031 339.742188 112.902344 338.066406 C 101.667969 322.398438 98.59375 294.324219 88.339844 279.300781 L 88.21875 279.152344 L 88.089844 279.007812 C 82.113281 270.976562 75.148438 264.425781 68.289062 257.609375 C 43.722656 233.199219 22.695312 209.601562 16.808594 184.59375 C 15.328125 177.207031 11.519531 169.558594 13.542969 147.710938 L 13.582031 147.605469 L 13.617188 147.496094 C 19.527344 127.085938 29.144531 110.449219 45.460938 93.777344 C 62.445312 94.050781 79.253906 94.421875 92.347656 96.925781 C 98.355469 97.929688 110.847656 99.5625 123.75 104.367188 C 156.40625 116.53125 199.558594 136.535156 199.558594 136.535156 C 167.167969 118.746094 130.949219 95.640625 108.078125 90.980469 C 104.675781 90.5 102.582031 88.945312 101.574219 86.234375 C 135.972656 66.023438 142.265625 42.230469 164.890625 20.886719 C 175.230469 16.386719 179.261719 14.089844 188.046875 13.132812 C 269.304688 25.980469 320.457031 58.347656 360.917969 79.988281 C 377.34375 88.917969 392.273438 95.671875 406.53125 103.804688 C 419.03125 107.917969 456.75 136.390625 467.785156 151.746094 C 479 175.421875 487.1875 200.996094 494.65625 225.675781 C 500.007812 250.773438 504.707031 260.957031 504.707031 260.957031 C 504.707031 260.957031 500.15625 239.960938 500.914062 236.1875 C 505.632812 237.953125 516.785156 241.433594 521.410156 240.894531 C 521.410156 240.894531 500.757812 230.21875 498.050781 220.78125 C 489.363281 190.503906 480.65625 143.367188 478.304688 140.910156 C 471.6875 132.582031 444.085938 111.457031 427.152344 101.6875 C 420.75 97.992188 417.285156 95.699219 417.015625 94.074219 C 422.425781 88.609375 429.105469 81.382812 435.09375 76.789062 C 440.835938 72.386719 446.0625 67.421875 454.066406 64.449219 C 489.234375 48.609375 509.347656 70.542969 514.117188 66.101562 C 514.117188 66.101562 506.550781 57.429688 509.914062 58.855469 C 513.355469 60.722656 524.570312 62.921875 525.800781 64.066406 C 538.621094 74.09375 572.132812 110.738281 592.332031 149.410156 C 597.183594 158.878906 599.152344 165.117188 596.902344 176.523438 C 594.648438 187.9375 592.902344 194.21875 590.441406 201.839844 C 588.21875 206.9375 575.644531 241.832031 575.691406 246.519531 C 573.160156 265.664062 583.902344 289.632812 583.902344 289.632812 C 584.003906 283.128906 583.503906 279.660156 584.09375 275.007812 L 584.816406 266.695312 C 584.816406 266.695312 584.355469 264.480469 584.441406 263.605469 C 584.984375 257.855469 586.398438 253.023438 586.8125 249.730469 C 590.847656 224.726562 597.867188 206.726562 605.832031 184.785156 C 608.195312 179.246094 611.292969 176.167969 611.136719 171.953125 C 611.265625 164.46875 604.570312 154.429688 599.734375 144.621094 C 594.851562 134.707031 589.019531 123.660156 581.363281 112.011719 C 563.910156 86.910156 549.027344 67.273438 521.78125 54.980469 C 514.15625 51.636719 484.15625 48.363281 473.796875 50.308594 C 461.230469 52.925781 450.421875 55.507812 441.804688 61.027344 C 428.246094 69.710938 417.589844 83.152344 405.09375 91.074219 C 377.445312 77.25 364.101562 66.902344 361.613281 65.476562 C 345.179688 56.671875 325.453125 46.453125 304.230469 36.765625 C 294.054688 27.273438 230.859375 4.578125 172.996094 0.0507812 Z M 526.652344 515.71875 C 509.613281 502.398438 495.269531 488.6875 485.8125 474.566406 C 482.726562 491.171875 471.523438 503 462.863281 514.632812 C 461.140625 517.359375 459.898438 521.082031 468.386719 532.9375 C 470.671875 536.09375 478.949219 536.632812 484.539062 536.34375 C 478.855469 532.046875 470.203125 527.503906 468.8125 523.5625 C 478.8125 530.371094 488.070312 532.328125 496.441406 531.230469 C 498.351562 531.015625 500.730469 528.988281 502.566406 525.867188 C 506.296875 517.851562 509.21875 515.921875 512.167969 513.761719 L 518.972656 522.285156 Z M 526.652344 515.71875 "/>
</g>
</svg>
